<svg width="34" height="34" viewBox="0 0 34 34" fill="none" xmlns="http://www.w3.org/2000/svg">
<rect width="34" height="34" fill="white" fill-opacity="0.01"/>
<path fill-rule="evenodd" clip-rule="evenodd" d="M8.5 12.0558C8.5 11.6563 8.82441 11.3333 9.20833 11.3333H24.7917C25.1827 11.3333 25.5 11.6563 25.5 12.0558V24.7775C25.5 25.177 25.1756 25.5 24.7917 25.5H9.20833C9.11438 25.4991 9.02153 25.4797 8.93509 25.4428C8.84864 25.406 8.77029 25.3526 8.70452 25.2855C8.63874 25.2184 8.58683 25.139 8.55174 25.0518C8.51664 24.9647 8.49906 24.8715 8.5 24.7775V12.0558ZM11.3333 16.2987V17.7012C11.3333 18.1135 11.6535 18.4167 12.0487 18.4167H13.4512C13.5456 18.4182 13.6393 18.4007 13.7268 18.3653C13.8143 18.3299 13.8938 18.2773 13.9605 18.2105C14.0273 18.1438 14.0799 18.0643 14.1153 17.9768C14.1507 17.8893 14.1682 17.7956 14.1667 17.7012V16.2987C14.1682 16.2044 14.1507 16.1107 14.1153 16.0232C14.0799 15.9357 14.0273 15.8562 13.9605 15.7895C13.8938 15.7227 13.8143 15.6701 13.7268 15.6347C13.6393 15.5993 13.5456 15.5818 13.4512 15.5833H12.0487C11.9544 15.5818 11.8607 15.5993 11.7732 15.6347C11.6857 15.6701 11.6062 15.7227 11.5395 15.7895C11.4727 15.8562 11.4201 15.9357 11.3847 16.0232C11.3493 16.1107 11.3318 16.2044 11.3333 16.2987ZM15.5833 16.2987V17.7012C15.5833 18.1135 15.9035 18.4167 16.2987 18.4167H17.7012C17.7956 18.4182 17.8893 18.4007 17.9768 18.3653C18.0643 18.3299 18.1438 18.2773 18.2105 18.2105C18.2773 18.1438 18.3299 18.0643 18.3653 17.9768C18.4007 17.8893 18.4182 17.7956 18.4167 17.7012V16.2987C18.4182 16.2044 18.4007 16.1107 18.3653 16.0232C18.3299 15.9357 18.2773 15.8562 18.2105 15.7895C18.1438 15.7227 18.0643 15.6701 17.9768 15.6347C17.8893 15.5993 17.7956 15.5818 17.7012 15.5833H16.2987C16.2044 15.5818 16.1107 15.5993 16.0232 15.6347C15.9357 15.6701 15.8562 15.7227 15.7895 15.7895C15.7227 15.8562 15.6701 15.9357 15.6347 16.0232C15.5993 16.1107 15.5818 16.2044 15.5833 16.2987ZM11.3333 20.5487V21.9512C11.3333 22.3635 11.6535 22.6667 12.0487 22.6667H13.4512C13.5456 22.6682 13.6393 22.6507 13.7268 22.6153C13.8143 22.5799 13.8938 22.5273 13.9605 22.4605C14.0273 22.3938 14.0799 22.3143 14.1153 22.2268C14.1507 22.1393 14.1682 22.0456 14.1667 21.9512V20.5487C14.1682 20.4544 14.1507 20.3607 14.1153 20.2732C14.0799 20.1857 14.0273 20.1062 13.9605 20.0395C13.8938 19.9727 13.8143 19.9201 13.7268 19.8847C13.6393 19.8493 13.5456 19.8318 13.4512 19.8333H12.0487C11.9544 19.8318 11.8607 19.8493 11.7732 19.8847C11.6857 19.9201 11.6062 19.9727 11.5395 20.0395C11.4727 20.1062 11.4201 20.1857 11.3847 20.2732C11.3493 20.3607 11.3318 20.4544 11.3333 20.5487ZM10.625 11.3333V12.75H14.875V11.3333H10.625ZM19.125 11.3333V12.75H23.375V11.3333H19.125ZM19.8333 9.21542C19.8333 8.82017 20.1365 8.5 20.5487 8.5H21.9512C22.3465 8.5 22.6667 8.80317 22.6667 9.21542V11.3333H19.8333V9.21542ZM11.3333 9.21542C11.3333 8.82017 11.6365 8.5 12.0487 8.5H13.4512C13.8465 8.5 14.1667 8.80317 14.1667 9.21542V11.3333H11.3333V9.21542Z" fill="#42526E"/>
</svg>
