<svg width="24" height="24" viewBox="0 0 24 24" fill="none" xmlns="http://www.w3.org/2000/svg">
<rect width="23.2727" height="23.2727" fill="white" fill-opacity="0.01"/>
<path fill-rule="evenodd" clip-rule="evenodd" d="M5.81818 3.87878H17.4545C18.5256 3.87878 19.3939 4.74708 19.3939 5.81818V17.4545C19.3939 18.5256 18.5256 19.3939 17.4545 19.3939H5.81818C4.74708 19.3939 3.87878 18.5256 3.87878 17.4545V5.81818C3.87878 4.74708 4.74708 3.87878 5.81818 3.87878ZM7.75757 7.75757H15.5151C16.0507 7.75757 16.4848 8.19172 16.4848 8.72727C16.4848 9.26282 16.0507 9.69697 15.5151 9.69697H7.75757C7.22202 9.69697 6.78788 9.26282 6.78788 8.72727C6.78788 8.19172 7.22202 7.75757 7.75757 7.75757ZM15.5151 10.6667H7.75757C7.22202 10.6667 6.78788 11.1008 6.78788 11.6364C6.78788 12.1719 7.22202 12.6061 7.75757 12.6061H15.5151C16.0507 12.6061 16.4848 12.1719 16.4848 11.6364C16.4848 11.1008 16.0507 10.6667 15.5151 10.6667ZM7.75757 13.5758H10.6667C11.2022 13.5758 11.6364 14.0099 11.6364 14.5455C11.6364 15.081 11.2022 15.5151 10.6667 15.5151H7.75757C7.22202 15.5151 6.78788 15.081 6.78788 14.5455C6.78788 14.0099 7.22202 13.5758 7.75757 13.5758Z" fill="#038B00"/>
<circle cx="18.9069" cy="18.9091" r="5.09091" fill="#E3FCEF"/>
<path fill-rule="evenodd" clip-rule="evenodd" d="M23.2706 18.9091C23.2706 21.3191 21.3169 23.2728 18.9069 23.2728C16.497 23.2728 14.5433 21.3191 14.5433 18.9091C14.5433 16.4992 16.497 14.5455 18.9069 14.5455C21.3169 14.5455 23.2706 16.4992 23.2706 18.9091ZM17.7647 18.5028C17.818 18.5257 17.8661 18.559 17.9064 18.6006L18.4706 19.1649L19.9075 17.7279C19.9478 17.6862 19.9959 17.653 20.0492 17.6301C20.1024 17.6073 20.1597 17.5952 20.2176 17.5947C20.2755 17.5942 20.333 17.6052 20.3866 17.6272C20.4403 17.6491 20.489 17.6815 20.5299 17.7225C20.5709 17.7635 20.6033 17.8122 20.6253 17.8658C20.6472 17.9194 20.6582 17.9769 20.6577 18.0348C20.6572 18.0928 20.6452 18.15 20.6223 18.2033C20.5995 18.2565 20.5662 18.3047 20.5245 18.3449L18.7791 20.0904C18.6973 20.1722 18.5863 20.2181 18.4706 20.2181C18.3549 20.2181 18.2439 20.1722 18.1621 20.0904L17.2893 19.2177C17.2477 19.1774 17.2144 19.1293 17.1915 19.076C17.1687 19.0228 17.1566 18.9655 17.1561 18.9076C17.1556 18.8496 17.1667 18.7922 17.1886 18.7385C17.2106 18.6849 17.243 18.6362 17.2839 18.5952C17.3249 18.5543 17.3736 18.5219 17.4273 18.4999C17.4809 18.478 17.5383 18.4669 17.5963 18.4674C17.6542 18.4679 17.7115 18.48 17.7647 18.5028Z" fill="#038B00"/>
</svg>
