<svg width="20" height="20" viewBox="0 0 20 20" fill="none" xmlns="http://www.w3.org/2000/svg">
<rect width="20" height="20" fill="white" fill-opacity="0.01"/>
<path fill-rule="evenodd" clip-rule="evenodd" d="M7.35833 14.1667H12.6417C12.8383 13.6104 13.2252 13.1416 13.734 12.843C14.2428 12.5445 14.8408 12.4354 15.4223 12.5352C16.0038 12.6349 16.5313 12.937 16.9116 13.388C17.2918 13.8391 17.5004 14.41 17.5004 15C17.5004 15.59 17.2918 16.1609 16.9116 16.612C16.5313 17.063 16.0038 17.3651 15.4223 17.4648C14.8408 17.5646 14.2428 17.4555 13.734 17.157C13.2252 16.8584 12.8383 16.3896 12.6417 15.8333H7.35833C7.16174 16.3896 6.77483 16.8584 6.26599 17.157C5.75715 17.4555 5.15914 17.5646 4.57767 17.4648C3.9962 17.3651 3.46871 17.063 3.08843 16.612C2.70816 16.1609 2.49959 15.59 2.49959 15C2.49959 14.41 2.70816 13.8391 3.08843 13.388C3.46871 12.937 3.9962 12.6349 4.57767 12.5352C5.15914 12.4354 5.75715 12.5445 6.26599 12.843C6.77483 13.1416 7.16174 13.6104 7.35833 14.1667ZM2.49999 4.16667C2.49999 3.24583 3.24583 2.5 4.16166 2.5H14.1717C15.0892 2.5 15.8333 3.24 15.8333 4.16667C15.8333 5.0875 15.0875 5.83333 14.1717 5.83333H4.16166C3.94296 5.83355 3.72638 5.79056 3.52435 5.70682C3.32232 5.62308 3.13883 5.50024 2.98442 5.34537C2.83001 5.19049 2.70773 5.00663 2.62459 4.80435C2.54146 4.60207 2.49912 4.38536 2.49999 4.16667ZM6.66666 9.16667C6.66666 8.94759 6.70985 8.73065 6.79377 8.52828C6.87768 8.32591 7.00067 8.14207 7.1557 7.98727C7.31073 7.83247 7.49476 7.70976 7.69725 7.62615C7.89975 7.54254 8.11675 7.49967 8.33583 7.5H15.8308C16.2729 7.5 16.6968 7.67559 17.0093 7.98816C17.3219 8.30072 17.4975 8.72464 17.4975 9.16667C17.4975 9.60869 17.3219 10.0326 17.0093 10.3452C16.6968 10.6577 16.2729 10.8333 15.8308 10.8333H8.33583C8.11663 10.8341 7.89943 10.7915 7.69673 10.7081C7.49404 10.6246 7.30984 10.5019 7.15472 10.347C6.9996 10.1922 6.87663 10.0081 6.79287 9.80557C6.70911 9.603 6.66622 9.38587 6.66666 9.16667Z" fill="#038B00"/>
</svg>
