<svg width="20" height="20" viewBox="0 0 20 20" fill="none" xmlns="http://www.w3.org/2000/svg">
<rect width="20" height="20" fill="white" fill-opacity="0.01"/>
<path fill-rule="evenodd" clip-rule="evenodd" d="M18.3333 9.99999C18.3333 14.6024 14.6024 18.3333 9.99999 18.3333C5.39762 18.3333 1.66666 14.6024 1.66666 9.99999C1.66666 5.39762 5.39762 1.66666 9.99999 1.66666C14.6024 1.66666 18.3333 5.39762 18.3333 9.99999ZM12.357 5.96663C12.7921 6.39953 13.0984 6.94482 13.2417 7.54165C13.4353 8.34001 13.3265 9.18178 12.9362 9.90468C12.546 10.6276 11.902 11.1804 11.1283 11.4567C10.9575 11.5175 10.8367 11.6692 10.8367 11.85V12.5017C10.8367 12.7231 10.7487 12.9355 10.5921 13.0921C10.4355 13.2487 10.2231 13.3367 10.0017 13.3367C9.7802 13.3367 9.56782 13.2487 9.41122 13.0921C9.25463 12.9355 9.16666 12.7231 9.16666 12.5017V10.8233C9.16951 10.6042 9.25856 10.395 9.41453 10.2411C9.57047 10.0871 9.78075 10.0008 9.99985 10.0008H9.99416C10.915 10.0008 11.6633 9.25249 11.6633 8.33415C11.6534 7.89781 11.473 7.48271 11.1608 7.17771C10.8486 6.87272 10.4294 6.70206 9.99292 6.70228C9.55647 6.7025 9.13745 6.87357 8.82555 7.17888C8.51366 7.48419 8.33369 7.89947 8.32416 8.33582C8.32249 8.79498 7.94916 9.16748 7.48916 9.16748C7.28348 9.16622 7.08567 9.08833 6.93434 8.94903C6.78302 8.80973 6.68907 8.61902 6.67082 8.41415L6.66666 8.29165C6.68082 6.20498 8.60082 4.59498 10.7775 5.08998C11.375 5.23022 11.9219 5.53372 12.357 5.96663ZM10.8333 15C10.8333 15.4602 10.4602 15.8333 9.99999 15.8333C9.53975 15.8333 9.16666 15.4602 9.16666 15C9.16666 14.5397 9.53975 14.1667 9.99999 14.1667C10.4602 14.1667 10.8333 14.5397 10.8333 15Z" fill="#42526E"/>
</svg>
