<svg width="24" height="24" viewBox="0 0 24 24" fill="none" xmlns="http://www.w3.org/2000/svg">
<rect width="24" height="24" fill="white" fill-opacity="0.01"/>
<path d="M14.823 15.883C13.7124 16.725 12.3236 17.1139 10.9373 16.9713C9.55092 16.8287 8.27042 16.165 7.35456 15.1146C6.4387 14.0641 5.95578 12.7051 6.0034 11.3123C6.05102 9.9194 6.62563 8.59657 7.6111 7.6111C8.59657 6.62563 9.9194 6.05102 11.3123 6.0034C12.7051 5.95578 14.0641 6.4387 15.1146 7.35456C16.165 8.27042 16.8287 9.55092 16.9713 10.9373C17.1139 12.3236 16.725 13.7124 15.883 14.823L18.53 17.47C18.823 17.763 19.06 18.06 18.53 18.53C18 19 17.763 18.823 17.47 18.53L14.823 15.883ZM11.5 15.5C12.5609 15.5 13.5783 15.0786 14.3284 14.3284C15.0786 13.5783 15.5 12.5609 15.5 11.5C15.5 10.4391 15.0786 9.42171 14.3284 8.67156C13.5783 7.92142 12.5609 7.49999 11.5 7.49999C10.4391 7.49999 9.42171 7.92142 8.67156 8.67156C7.92142 9.42171 7.49999 10.4391 7.49999 11.5C7.49999 12.5609 7.92142 13.5783 8.67156 14.3284C9.42171 15.0786 10.4391 15.5 11.5 15.5Z" fill="#42526E"/>
</svg>
