<svg width="32" height="16" viewBox="0 0 32 16" fill="none" xmlns="http://www.w3.org/2000/svg">
<rect width="32" height="16" rx="8" fill="#00875A"/>
<rect width="12" height="12" transform="translate(3.19998 1.60001)" fill="white" fill-opacity="0.01"/>
<path d="M6.56748 7.761C6.47721 7.66499 6.35268 7.60851 6.22099 7.60382C6.08929 7.59914 5.96106 7.64664 5.8642 7.73599C5.76734 7.82534 5.70966 7.94932 5.70372 8.08097C5.69778 8.21262 5.74406 8.34129 5.83248 8.439L7.63848 10.3985C7.90698 10.6615 8.30698 10.6615 8.55548 10.4135L8.73748 10.234C9.39475 9.58761 10.0512 8.94044 10.707 8.2925L10.727 8.2725C11.3398 7.66853 11.9495 7.06136 12.556 6.451C12.6466 6.3561 12.6963 6.22937 12.6944 6.09815C12.6924 5.96693 12.6389 5.84174 12.5455 5.74961C12.452 5.65747 12.3261 5.60577 12.1948 5.60565C12.0636 5.60554 11.9376 5.65702 11.844 5.749C11.2403 6.35617 10.6336 6.96034 10.024 7.5615L10.004 7.5815C9.37562 8.20265 8.74645 8.82298 8.11648 9.4425L6.56748 7.761V7.761Z" fill="white" stroke="white"/>
<circle cx="23.8" cy="8" r="6" fill="white"/>
</svg>
